<svg width="25" height="25" viewBox="0 0 25 25" fill="none" xmlns="http://www.w3.org/2000/svg">
<rect width="25" height="25" rx="5" fill="#0B0B0B" fill-opacity="0.5"/>
<path d="M4.72222 22.5C4.11111 22.5 3.58778 22.2822 3.15222 21.8467C2.71667 21.4111 2.49926 20.8881 2.5 20.2778V4.72222C2.5 4.11111 2.71778 3.58778 3.15334 3.15222C3.58889 2.71667 4.11185 2.49926 4.72222 2.5H20.2778C20.8889 2.5 21.4122 2.71778 21.8478 3.15334C22.2833 3.58889 22.5007 4.11185 22.5 4.72222V20.2778C22.5 20.8889 22.2822 21.4122 21.8467 21.8478C21.4111 22.2833 20.8881 22.5007 20.2778 22.5H4.72222ZM4.72222 20.2778H20.2778V4.72222H4.72222V20.2778ZM5.83333 18.0556H19.1667L15 12.5L11.6667 16.9444L9.16667 13.6111L5.83333 18.0556Z" fill="#FAFAFA"/>
</svg>
