<svg width="14" height="14" viewBox="0 0 14 14" fill="none" xmlns="http://www.w3.org/2000/svg">
<path id="Vector" d="M7.80402 6.25601L7.80604 0.995327C7.79124 0.803129 7.70446 0.623649 7.56303 0.492751C7.42161 0.361854 7.23596 0.289181 7.04318 0.289255C6.8504 0.289329 6.6647 0.362143 6.52318 0.493149C6.38165 0.624154 6.29473 0.803701 6.27979 0.99591L6.25073 6.22954L0.957572 6.23156C0.765363 6.24651 0.585816 6.33343 0.454811 6.47495C0.323805 6.61648 0.25099 6.80218 0.250916 6.99496C0.250842 7.18774 0.323516 7.37339 0.454413 7.51481C0.58531 7.65623 0.76479 7.74302 0.956988 7.75781L6.27178 7.78825L6.23734 12.9299C6.22916 13.0351 6.24281 13.1408 6.27743 13.2404C6.31206 13.34 6.3669 13.4314 6.43853 13.5088C6.51016 13.5862 6.59702 13.6479 6.69367 13.6901C6.79031 13.7323 6.89466 13.7541 7.00015 13.754C7.10563 13.754 7.20999 13.7321 7.30667 13.6899C7.40335 13.6476 7.49026 13.5858 7.56195 13.5083C7.63363 13.4309 7.68855 13.3395 7.72325 13.2398C7.75795 13.1402 7.77168 13.0345 7.76358 12.9293L7.76556 7.76603L12.8963 7.76407C13.0886 7.74912 13.2681 7.66221 13.3991 7.52068C13.5301 7.37916 13.6029 7.19345 13.603 7.00067C13.6031 6.8079 13.5304 6.62225 13.3995 6.48082C13.2686 6.3394 13.0891 6.25262 12.8969 6.23782L7.80402 6.25601Z" fill="#FAFAFA"/>
</svg>
