<svg width="20" height="30" viewBox="0 0 20 30" fill="none" xmlns="http://www.w3.org/2000/svg">
<rect x="0.5" y="0.5" width="19" height="29" rx="4.5" stroke="#0B0B0B"/>
<path d="M10.6967 19.859C10.8059 19.984 10.8673 20.1534 10.8673 20.33C10.8673 20.5067 10.8059 20.6761 10.6967 20.8011L9.97207 21.634C9.2058 22.509 8.16671 23.0004 7.08339 23C6.00007 22.9996 4.96125 22.5075 4.19546 21.6319C3.42968 20.7563 2.99966 19.569 3 18.3312C3.00034 17.0933 3.43102 15.9063 4.19729 15.0313L5.95553 13.0222C6.69154 12.1806 7.68123 11.6921 8.72208 11.6568C9.76292 11.6215 10.7762 12.042 11.5546 12.8323C11.6121 12.8905 11.6589 12.9611 11.6925 13.0399C11.7261 13.1188 11.7457 13.2045 11.7503 13.292C11.7549 13.3796 11.7444 13.4673 11.7193 13.5502C11.6942 13.6331 11.6551 13.7096 11.6042 13.7752C11.5533 13.8408 11.4915 13.8944 11.4225 13.9327C11.3535 13.9711 11.2785 13.9936 11.2019 13.9988C11.1253 14.0041 11.0485 13.992 10.9759 13.9634C10.9034 13.9347 10.8365 13.89 10.779 13.8319C10.2231 13.2677 9.49949 12.9676 8.75628 12.9928C8.01307 13.018 7.30637 13.3667 6.7807 13.9676L5.02246 15.9742C4.47553 16.5991 4.16827 17.4467 4.16827 18.3306C4.16827 19.2144 4.47553 20.062 5.02246 20.687C5.5694 21.3119 6.3112 21.663 7.08468 21.663C7.85816 21.663 8.59996 21.3119 9.14689 20.687L9.87148 19.859C9.92564 19.7971 9.98995 19.7479 10.0607 19.7144C10.1315 19.6808 10.2074 19.6636 10.2841 19.6636C10.3607 19.6636 10.4366 19.6808 10.5074 19.7144C10.5782 19.7479 10.6425 19.7971 10.6967 19.859ZM15.8052 8.36444C15.0388 7.4907 14.0004 7 12.9178 7C11.8352 7 10.7968 7.4907 10.0304 8.36444L9.30581 9.19321C9.19648 9.31825 9.1351 9.48779 9.13516 9.66453C9.13523 9.84128 9.19675 10.0108 9.30617 10.1357C9.4156 10.2606 9.56397 10.3307 9.71865 10.3307C9.87333 10.3306 10.0217 10.2603 10.131 10.1353L10.8556 9.30732C11.4025 8.68237 12.1443 8.33128 12.9178 8.33128C13.6913 8.33128 14.4331 8.68237 14.98 9.30732C15.5269 9.93228 15.8342 10.7799 15.8342 11.6637C15.8342 12.5475 15.5269 13.3951 14.98 14.0201L13.2218 16.0308C12.6958 16.6313 11.989 16.9796 11.2457 17.0044C10.5025 17.0291 9.77912 16.7286 9.22343 16.1641C9.10744 16.0466 8.95533 15.9865 8.80058 15.9971C8.64583 16.0077 8.50111 16.0882 8.39826 16.2207C8.2954 16.3533 8.24285 16.5271 8.25214 16.7039C8.26144 16.8807 8.33183 17.0461 8.44783 17.1636C9.22606 17.9541 10.2393 18.375 11.2801 18.34C12.3209 18.305 13.3107 17.8168 14.0469 16.9754L15.8052 14.9663C16.5703 14.0905 17 12.9037 17 11.6662C17 10.4288 16.5703 9.24187 15.8052 8.3661V8.36444Z" fill="black"/>
</svg>
