<svg width="4" height="5" viewBox="0 0 4 5" fill="none" xmlns="http://www.w3.org/2000/svg">
<path d="M2.43784 2.51697L3.92635 1.0296C3.97653 0.97105 4.00275 0.89574 3.99977 0.818716C3.99679 0.741692 3.96484 0.668627 3.91029 0.614122C3.85575 0.559617 3.78263 0.527687 3.70554 0.524712C3.62846 0.521737 3.55309 0.547936 3.4945 0.598074L2.00599 2.07015L0.508283 0.57359C0.449691 0.523452 0.374324 0.497253 0.297241 0.500228C0.220158 0.503203 0.147037 0.535134 0.0924902 0.589638C0.0379436 0.644143 0.00598882 0.717208 0.00301143 0.794232C3.40518e-05 0.871256 0.0262533 0.946567 0.0764299 1.00511L1.57107 2.51697L0.107058 3.9615C0.0749959 3.98894 0.0489561 4.0227 0.0305722 4.06067C0.0121884 4.09864 0.00185748 4.14 0.000228231 4.18214C-0.00140102 4.22429 0.00570651 4.26632 0.0211045 4.30559C0.0365026 4.34487 0.0598587 4.38054 0.089707 4.41036C0.119555 4.44019 0.155251 4.46353 0.194555 4.47891C0.233858 4.4943 0.27592 4.5014 0.3181 4.49977C0.360281 4.49814 0.401669 4.48782 0.439667 4.46945C0.477666 4.45108 0.511454 4.42506 0.538911 4.39302L1.99986 2.93319L3.45162 4.38384C3.51021 4.43398 3.58558 4.46018 3.66266 4.45721C3.73975 4.45423 3.81287 4.4223 3.86741 4.3678C3.92196 4.31329 3.95392 4.24023 3.95689 4.1632C3.95987 4.08618 3.93365 4.01087 3.88347 3.95232L2.43784 2.51697Z" fill="#FAFAFA"/>
</svg>
