<svg width="50" height="51" viewBox="0 0 50 51" fill="none" xmlns="http://www.w3.org/2000/svg">
<path d="M15.9091 38.5V36.4167C15.9091 33.654 16.8669 31.0045 18.5718 29.051C20.2766 27.0975 22.5889 26 25 26M25 26C27.4111 26 29.7234 27.0975 31.4282 29.051C33.1331 31.0045 34.0909 33.654 34.0909 36.4167V38.5M25 26C26.4466 26 27.834 25.3415 28.8569 24.1694C29.8799 22.9973 30.4545 21.4076 30.4545 19.75C30.4545 18.0924 29.8799 16.5027 28.8569 15.3306C27.834 14.1585 26.4466 13.5 25 13.5C23.5534 13.5 22.166 14.1585 21.1431 15.3306C20.1201 16.5027 19.5455 18.0924 19.5455 19.75C19.5455 21.4076 20.1201 22.9973 21.1431 24.1694C22.166 25.3415 23.5534 26 25 26ZM5 38.5V36.4167C5 34.7591 5.57467 33.1694 6.5976 31.9972C7.62053 30.8251 9.00791 30.1667 10.4545 30.1667M10.4545 30.1667C11.419 30.1667 12.3439 29.7277 13.0258 28.9463C13.7078 28.1649 14.0909 27.1051 14.0909 26C14.0909 24.8949 13.7078 23.8351 13.0258 23.0537C12.3439 22.2723 11.419 21.8333 10.4545 21.8333C9.49012 21.8333 8.5652 22.2723 7.88325 23.0537C7.2013 23.8351 6.81818 24.8949 6.81818 26C6.81818 27.1051 7.2013 28.1649 7.88325 28.9463C8.5652 29.7277 9.49012 30.1667 10.4545 30.1667ZM45 38.5V36.4167C45 34.7591 44.4253 33.1694 43.4024 31.9972C42.3795 30.8251 40.9921 30.1667 39.5455 30.1667M39.5455 30.1667C40.5099 30.1667 41.4348 29.7277 42.1168 28.9463C42.7987 28.1649 43.1818 27.1051 43.1818 26C43.1818 24.8949 42.7987 23.8351 42.1168 23.0537C41.4348 22.2723 40.5099 21.8333 39.5455 21.8333C38.581 21.8333 37.6561 22.2723 36.9742 23.0537C36.2922 23.8351 35.9091 24.8949 35.9091 26C35.9091 27.1051 36.2922 28.1649 36.9742 28.9463C37.6561 29.7277 38.581 30.1667 39.5455 30.1667Z" stroke="white" stroke-width="3" stroke-linecap="round" stroke-linejoin="round"/>
</svg>
