<svg width="57" height="83" viewBox="0 0 57 83" fill="none" xmlns="http://www.w3.org/2000/svg">
<rect x="0.5" y="6.5" width="50" height="76" rx="9.5" fill="#FAFAFA" stroke="#0B0B0B"/>
<rect x="3.5" y="3.5" width="50" height="76" rx="9.5" fill="#FAFAFA" stroke="#0B0B0B"/>
<rect x="6.5" y="0.5" width="50" height="76" rx="9.5" fill="#FAFAFA" stroke="#0B0B0B"/>
<path d="M22.9316 45.3965V31.2988C22.1699 31.2871 21.6074 31.1172 21.2441 30.7891C20.8809 30.4492 20.6992 30.0156 20.6992 29.4883C20.6992 28.9492 20.8809 28.5156 21.2441 28.1875C21.6191 27.8477 22.2402 27.6777 23.1074 27.6777L30.6484 27.6953C31.8203 27.6953 32.9629 27.9121 34.0762 28.3457C35.2012 28.7793 36.1035 29.3301 36.7832 29.998C37.2988 30.502 37.832 31.1934 38.3828 32.0723C38.9453 32.9512 39.3672 33.8242 39.6484 34.6914C39.9297 35.5586 40.0703 36.6191 40.0703 37.873V39.5957C40.0703 41.1191 39.8125 42.4727 39.2969 43.6562C38.7812 44.8281 38.1016 45.7891 37.2578 46.5391C36.4258 47.2773 35.6406 47.8223 34.9023 48.1738C33.7305 48.7246 32.2129 49 30.3496 49H23.1074C22.2402 49 21.6191 48.8359 21.2441 48.5078C20.8809 48.168 20.6992 47.7285 20.6992 47.1895C20.6992 46.6621 20.8809 46.2285 21.2441 45.8887C21.6191 45.5488 22.1816 45.3848 22.9316 45.3965ZM26.5352 45.3965H30.3672C31.7969 45.3965 32.875 45.1914 33.6016 44.7812C34.5508 44.2422 35.2656 43.5566 35.7461 42.7246C36.2266 41.8926 36.4668 40.8145 36.4668 39.4902V37.7852C36.4668 36.6484 36.25 35.6523 35.8164 34.7969C35.1367 33.4609 34.3691 32.5469 33.5137 32.0547C32.6699 31.5508 31.6094 31.2988 30.332 31.2988H26.5352V45.3965Z" fill="#0B0B0B"/>
</svg>
