<svg width="12" height="12" viewBox="0 0 20 21" fill="#FFFFFF" xmlns="http://www.w3.org/2000/svg">
<path d="M19.1784 7.38289L6.55161 20.0069L2.20485 20.4877C0.945057 20.6271 -0.127206 19.5647 0.0122364 18.2955L0.493072 13.9497L13.1198 1.32565C14.2209 0.224776 16 0.224776 17.0963 1.32565L19.1736 3.40242C20.2747 4.5033 20.2747 6.28682 19.1784 7.38289ZM14.4277 8.86835L11.634 6.07529L2.70011 15.0121L2.3491 18.1513L5.48896 17.8004L14.4277 8.86835ZM17.5435 5.03691L15.4663 2.96015C15.2692 2.76305 14.947 2.76305 14.7547 2.96015L13.2689 4.44561L16.0626 7.23867L17.5483 5.7532C17.7407 5.55129 17.7407 5.23401 17.5435 5.03691Z" fill="#FFFFFF"/>
</svg>
