<svg width="100" height="151" class= "bi bi-logo" viewBox="0 0 100 151" fill="none" xmlns="http://www.w3.org/2000/svg">
<path d="M23.1055 69.1719C23.2292 69.0026 23.3626 68.8757 23.5059 68.791C23.6556 68.7064 23.8151 68.6641 23.9844 68.6641C24.2773 68.6641 24.515 68.765 24.6973 68.9668C24.8861 69.1686 24.9805 69.5104 24.9805 69.9922V71.6914C24.9805 72.1732 24.8861 72.5182 24.6973 72.7266C24.515 72.9284 24.2773 73.0293 23.9844 73.0293C23.7174 73.0293 23.5026 72.9544 23.3398 72.8047C23.1771 72.6549 23.0566 72.375 22.9785 71.9648C22.9329 71.6914 22.8418 71.4798 22.7051 71.3301C22.4382 71.0371 22.0638 70.8027 21.582 70.627C21.1068 70.4512 20.6283 70.3633 20.1465 70.3633C19.5475 70.3633 18.9974 70.4935 18.4961 70.7539C17.9948 71.0143 17.5521 71.4375 17.168 72.0234C16.7839 72.6094 16.5918 73.306 16.5918 74.1133V75.4121C16.5918 76.3757 16.9401 77.1797 17.6367 77.8242C18.3398 78.4688 19.3132 78.791 20.5566 78.791C21.2988 78.791 21.9271 78.6901 22.4414 78.4883C22.7409 78.3711 23.0599 78.14 23.3984 77.7949C23.6068 77.5866 23.7695 77.4531 23.8867 77.3945C24.0039 77.3294 24.1374 77.2969 24.2871 77.2969C24.554 77.2969 24.7884 77.3978 24.9902 77.5996C25.1921 77.8014 25.293 78.0391 25.293 78.3125C25.293 78.5859 25.1562 78.8789 24.8828 79.1914C24.4857 79.6471 23.9746 80.0052 23.3496 80.2656C22.5098 80.6172 21.582 80.793 20.5664 80.793C19.3815 80.793 18.3138 80.5488 17.3633 80.0605C16.5951 79.6699 15.9408 79.0547 15.4004 78.2148C14.86 77.3685 14.5898 76.4473 14.5898 75.4512V74.0938C14.5898 73.0521 14.8307 72.082 15.3125 71.1836C15.8008 70.2786 16.4746 69.582 17.334 69.0938C18.1934 68.6055 19.1048 68.3613 20.0684 68.3613C20.6478 68.3613 21.1882 68.4297 21.6895 68.5664C22.1973 68.6966 22.6693 68.8984 23.1055 69.1719ZM37.1777 76.2324C37.1777 77.0007 36.9629 77.7461 36.5332 78.4688C36.11 79.1849 35.4753 79.7578 34.6289 80.1875C33.7891 80.6107 32.9102 80.8223 31.9922 80.8223C31.0807 80.8223 30.2083 80.6139 29.375 80.1973C28.5417 79.7741 27.9069 79.2012 27.4707 78.4785C27.0345 77.7559 26.8164 77.0007 26.8164 76.2129C26.8164 75.4121 27.0378 74.6276 27.4805 73.8594C27.9232 73.0846 28.5579 72.4759 29.3848 72.0332C30.2181 71.5905 31.0872 71.3691 31.9922 71.3691C32.9036 71.3691 33.7793 71.597 34.6191 72.0527C35.4655 72.502 36.1035 73.1107 36.5332 73.8789C36.9629 74.6406 37.1777 75.4251 37.1777 76.2324ZM35.1758 76.2422C35.1758 75.5977 34.9447 75.0052 34.4824 74.4648C33.8509 73.7357 33.0208 73.3711 31.9922 73.3711C31.0872 73.3711 30.332 73.6608 29.7266 74.2402C29.1211 74.8197 28.8184 75.4902 28.8184 76.252C28.8184 76.877 29.1243 77.4629 29.7363 78.0098C30.3483 78.5501 31.1003 78.8203 31.9922 78.8203C32.8906 78.8203 33.6458 78.5501 34.2578 78.0098C34.8698 77.4629 35.1758 76.8737 35.1758 76.2422ZM48.584 67.834V78.498H48.9258C49.401 78.498 49.7428 78.5924 49.9512 78.7812C50.1595 78.9635 50.2637 79.2044 50.2637 79.5039C50.2637 79.7969 50.1595 80.0378 49.9512 80.2266C49.7493 80.4089 49.4076 80.5 48.9258 80.5H46.582V80.0117C46.1263 80.2786 45.6478 80.4805 45.1465 80.6172C44.6517 80.7539 44.1374 80.8223 43.6035 80.8223C42.0996 80.8223 40.8887 80.3893 39.9707 79.5234C39.0527 78.651 38.5938 77.5671 38.5938 76.2715C38.5938 74.9173 39.0755 73.7617 40.0391 72.8047C41.0026 71.8477 42.1777 71.3691 43.5645 71.3691C44.0853 71.3691 44.5964 71.4505 45.0977 71.6133C45.599 71.7695 46.0938 72.0072 46.582 72.3262V69.8359H46.2402C45.7585 69.8359 45.4134 69.7448 45.2051 69.5625C45.0033 69.3737 44.9023 69.1328 44.9023 68.8398C44.9023 68.5404 45.0033 68.2995 45.2051 68.1172C45.4134 67.9284 45.7585 67.834 46.2402 67.834H48.584ZM46.582 76.3301C46.582 75.5033 46.2923 74.8034 45.7129 74.2305C45.1335 73.6576 44.4238 73.3711 43.584 73.3711C42.7507 73.3711 42.0443 73.6576 41.4648 74.2305C40.8854 74.8034 40.5957 75.4935 40.5957 76.3008C40.5957 77.0365 40.8561 77.6419 41.377 78.1172C41.8978 78.5859 42.6335 78.8203 43.584 78.8203C44.528 78.8203 45.2637 78.5859 45.791 78.1172C46.3184 77.6419 46.582 77.0462 46.582 76.3301ZM61.0254 77.082H52.8125C53.0208 77.6029 53.3887 78.0228 53.916 78.3418C54.4499 78.6608 55.1693 78.8203 56.0742 78.8203C56.8164 78.8203 57.8027 78.6608 59.0332 78.3418C59.541 78.2116 59.8926 78.1465 60.0879 78.1465C60.3548 78.1465 60.5794 78.2409 60.7617 78.4297C60.944 78.6185 61.0352 78.8561 61.0352 79.1426C61.0352 79.403 60.9375 79.6243 60.7422 79.8066C60.4818 80.0475 59.847 80.2786 58.8379 80.5C57.8288 80.7148 56.8587 80.8223 55.9277 80.8223C54.3262 80.8223 53.0436 80.3698 52.0801 79.4648C51.123 78.5599 50.6445 77.4466 50.6445 76.125C50.6445 74.7188 51.1621 73.5762 52.1973 72.6973C53.2389 71.8118 54.4368 71.3691 55.791 71.3691C56.6048 71.3691 57.3503 71.5124 58.0273 71.7988C58.7109 72.0853 59.2188 72.3945 59.5508 72.7266C60.0195 73.2083 60.4069 73.804 60.7129 74.5137C60.9212 75.0085 61.0254 75.5814 61.0254 76.2324V77.082ZM58.8086 75.0801C58.5026 74.5072 58.1022 74.0807 57.6074 73.8008C57.1126 73.5143 56.5234 73.3711 55.8398 73.3711C55.1628 73.3711 54.5768 73.5143 54.082 73.8008C53.5872 74.0807 53.1836 74.5072 52.8711 75.0801H58.8086ZM71.1328 71.9941C71.3737 71.7663 71.6211 71.6523 71.875 71.6523C72.1615 71.6523 72.3958 71.7565 72.5781 71.9648C72.7669 72.1667 72.8613 72.5052 72.8613 72.9805V74.2695C72.8613 74.7513 72.7669 75.0931 72.5781 75.2949C72.3958 75.4967 72.1549 75.5977 71.8555 75.5977C71.582 75.5977 71.3509 75.5195 71.1621 75.3633C71.0254 75.2461 70.918 75.0085 70.8398 74.6504C70.7617 74.2858 70.5729 74.0156 70.2734 73.8398C69.7461 73.5273 69.0723 73.3711 68.252 73.3711C67.3079 73.3711 66.5495 73.6478 65.9766 74.2012C65.4102 74.7546 65.127 75.4544 65.127 76.3008C65.127 77.082 65.4004 77.7005 65.9473 78.1562C66.4941 78.6055 67.4023 78.8301 68.6719 78.8301C69.5052 78.8301 70.1855 78.7454 70.7129 78.5762C71.0254 78.472 71.3216 78.2962 71.6016 78.0488C71.8815 77.7949 72.1354 77.668 72.3633 77.668C72.6367 77.668 72.8711 77.7689 73.0664 77.9707C73.2682 78.1725 73.3691 78.4102 73.3691 78.6836C73.3691 79.1263 73.0664 79.5462 72.4609 79.9434C71.5625 80.5358 70.2474 80.832 68.5156 80.832C66.9596 80.832 65.7487 80.5098 64.8828 79.8652C63.7109 78.9993 63.125 77.8145 63.125 76.3105C63.125 74.8848 63.6003 73.7064 64.5508 72.7754C65.5013 71.8379 66.7415 71.3691 68.2715 71.3691C68.8249 71.3691 69.3392 71.4212 69.8145 71.5254C70.2897 71.6296 70.7292 71.7858 71.1328 71.9941ZM78.3789 77.1699V80.5H76.0352C75.5534 80.5 75.2083 80.4089 75 80.2266C74.7982 80.0378 74.6973 79.7936 74.6973 79.4941C74.6973 79.2012 74.8014 78.9635 75.0098 78.7812C75.2181 78.5924 75.5599 78.498 76.0352 78.498H76.377V69.8359H76.0352C75.5534 69.8359 75.2083 69.7448 75 69.5625C74.7982 69.3737 74.6973 69.1296 74.6973 68.8301C74.6973 68.5371 74.7982 68.2995 75 68.1172C75.2083 67.9284 75.5534 67.834 76.0352 67.834H78.3789V74.582L79.9414 73.3223C79.7786 73.0423 79.6973 72.8145 79.6973 72.6387C79.6973 72.3392 79.7982 72.0983 80 71.916C80.2018 71.7272 80.5436 71.6328 81.0254 71.6328H83.3105C83.7923 71.6328 84.1341 71.7272 84.3359 71.916C84.5443 72.0983 84.6484 72.3392 84.6484 72.6387C84.6484 72.9316 84.5443 73.1725 84.3359 73.3613C84.1341 73.5436 83.7923 73.6348 83.3105 73.6348H82.7539L80.3223 75.6074L83.5938 78.498H84.1797C84.6615 78.498 85.0033 78.5924 85.2051 78.7812C85.4134 78.9635 85.5176 79.2044 85.5176 79.5039C85.5176 79.7969 85.4134 80.0378 85.2051 80.2266C85.0033 80.4089 84.6615 80.5 84.1797 80.5H81.875C81.3932 80.5 81.0482 80.4089 80.8398 80.2266C80.638 80.0378 80.5371 79.7936 80.5371 79.4941C80.5371 79.2402 80.6478 78.9896 80.8691 78.7422L78.75 76.8672L78.3789 77.1699Z" fill="#FAFAFA"/>
<rect x="1" y="1.5" width="98" height="148" rx="19" stroke="#FAFAFA" stroke-width="2"/>
</svg>
