<svg width="25" height="26" viewBox="0 0 25 26" fill="none" xmlns="http://www.w3.org/2000/svg">
<path d="M24.7145 15.4754C24.5887 15.3493 24.431 15.2599 24.2583 15.2167C24.0855 15.1735 23.9043 15.1782 23.734 15.2302C21.8643 15.7956 19.8763 15.843 17.9817 15.3674C16.0872 14.8918 14.3572 13.911 12.976 12.5295C11.5949 11.1481 10.6143 9.4177 10.1388 7.5228C9.66328 5.62789 9.71068 3.63946 10.2759 1.76937C10.3284 1.59897 10.3334 1.41748 10.2904 1.24444C10.2475 1.07139 10.1582 0.913333 10.0321 0.787256C9.90609 0.66118 9.74806 0.571858 9.57505 0.528896C9.40204 0.485935 9.22059 0.490959 9.05023 0.543429C6.46528 1.33544 4.19593 2.92273 2.5651 5.07942C1.13891 6.97332 0.268965 9.22748 0.0530111 11.5886C-0.162943 13.9498 0.283649 16.3244 1.34261 18.4457C2.40158 20.567 4.03096 22.3509 6.04769 23.5971C8.06443 24.8432 10.3886 25.5022 12.7592 25.4999C15.5247 25.5085 18.2167 24.6092 20.4222 22.9402C22.5784 21.309 24.1654 19.0392 24.9572 16.4537C25.0091 16.2839 25.0139 16.1033 24.9711 15.931C24.9284 15.7587 24.8397 15.6012 24.7145 15.4754ZM19.2431 21.3734C17.1662 22.938 14.5941 23.6996 12.0004 23.518C9.40666 23.3363 6.96582 22.2237 5.12721 20.3848C3.2886 18.546 2.17597 16.1047 1.99414 13.5105C1.81232 10.9162 2.57353 8.34356 4.13766 6.26613C5.15671 4.92012 0.987826 7.50034 2.5 6.75C2.41386 7.35467 1.25036 9.88923 1.25 10.5C1.25357 13.8804 1.74788 17.9945 4.13766 20.3848C6.52745 22.7751 7.87034 24.2464 11.25 24.25C22.5 23 20.6442 18.1616 21.25 18.0752C20.4991 19.588 20.5897 20.3544 19.2431 21.3734Z" fill="#FAFAFA"/>
</svg>
