<svg width="11" height="11" viewBox="0 0 11 11" fill="none" xmlns="http://www.w3.org/2000/svg">
<path d="M6.5946 5.54243L10.3159 1.82399C10.4413 1.67763 10.5069 1.48935 10.4994 1.29679C10.492 1.10423 10.4121 0.921567 10.2757 0.785305C10.1394 0.649043 9.95656 0.569217 9.76386 0.561779C9.57115 0.554342 9.38273 0.619839 9.23625 0.745185L5.51497 4.42537L1.77071 0.683976C1.62423 0.558631 1.43581 0.493133 1.2431 0.500571C1.05039 0.508008 0.867592 0.587834 0.731225 0.724096C0.594859 0.860358 0.514972 1.04302 0.507529 1.23558C0.500085 1.42814 0.565633 1.61642 0.691075 1.76278L4.42768 5.54243L0.767645 9.15375C0.68749 9.22234 0.62239 9.30675 0.576431 9.40167C0.530471 9.4966 0.504644 9.59999 0.500571 9.70536C0.496497 9.81073 0.514266 9.9158 0.552761 10.014C0.591256 10.1122 0.649647 10.2013 0.724268 10.2759C0.798889 10.3505 0.888128 10.4088 0.986387 10.4473C1.08464 10.4857 1.1898 10.5035 1.29525 10.4994C1.4007 10.4954 1.50417 10.4696 1.59917 10.4236C1.69416 10.3777 1.77863 10.3127 1.84728 10.2326L5.49965 6.58298L9.12905 10.2096C9.27553 10.335 9.46395 10.4005 9.65666 10.393C9.84937 10.3856 10.0322 10.3057 10.1685 10.1695C10.3049 10.0332 10.3848 9.85056 10.3922 9.658C10.3997 9.46544 10.3341 9.27717 10.2087 9.1308L6.5946 5.54243Z" fill="#FAFAFA"/>
</svg>
