<svg width="40" height="60" viewBox="0 0 40 60" fill="none" xmlns="http://www.w3.org/2000/svg">
<g clip-path="url(#clip0_84_1830)">
<rect x="1" y="1" width="38" height="58" rx="4" fill="#FAFAFA"/>
<rect x="1" y="1" width="38" height="58" rx="4" stroke="#0B0B0B" stroke-width="2"/>
<path d="M34.5293 21.6465L27.8787 15.4393C27.7299 15.2996 27.5528 15.1888 27.3577 15.1134C27.1627 15.038 26.9536 14.9995 26.7424 15H6.60714C6.18105 15.0005 5.77256 15.1587 5.47127 15.4399C5.16998 15.7211 5.0005 16.1023 5 16.5V43.5C5.0005 43.8977 5.16998 44.2789 5.47127 44.5601C5.77256 44.8414 6.18105 44.9995 6.60714 45H33.3928C33.8189 44.9995 34.2274 44.8414 34.5287 44.5601C34.83 44.2789 34.9995 43.8977 35 43.5V22.7071C35.0006 22.51 34.9593 22.3148 34.8785 22.1328C34.7977 21.9507 34.679 21.7854 34.5293 21.6465ZM24.2857 17V23H14.6429V17H24.2857ZM32.8571 43H7.14286V17H12.5V25H26.4286V17H26.5205L32.8571 22.9142V43Z" fill="#0B0B0B"/>
<path d="M20 27.225C18.8133 27.225 17.6533 27.5769 16.6666 28.2362C15.6799 28.8954 14.9109 29.8325 14.4567 30.9289C14.0026 32.0252 13.8838 33.2316 14.1153 34.3955C14.3468 35.5594 14.9182 36.6285 15.7574 37.4676C16.5965 38.3067 17.6656 38.8782 18.8295 39.1097C19.9933 39.3412 21.1997 39.2224 22.2961 38.7683C23.3925 38.3141 24.3295 37.5451 24.9888 36.5584C25.6481 35.5717 26 34.4117 26 33.225C25.9983 31.6342 25.3656 30.1091 24.2407 28.9842C23.1159 27.8594 21.5908 27.2267 20 27.225ZM20 37.138C19.2261 37.138 18.4695 36.9085 17.826 36.4786C17.1825 36.0486 16.681 35.4374 16.3848 34.7224C16.0887 34.0074 16.0112 33.2206 16.1621 32.4616C16.3131 31.7025 16.6858 31.0053 17.2331 30.458C17.7803 29.9108 18.4775 29.5381 19.2366 29.3871C19.9957 29.2361 20.7824 29.3136 21.4975 29.6098C22.2125 29.906 22.8236 30.4075 23.2536 31.051C23.6835 31.6945 23.913 32.451 23.913 33.225C23.9119 34.2624 23.4992 35.257 22.7656 35.9906C22.0321 36.7242 21.0374 37.1368 20 37.138Z" fill="#0B0B0B"/>
</g>
<defs>
<clipPath id="clip0_84_1830">
<rect width="40" height="60" fill="white"/>
</clipPath>
</defs>
</svg>
