<svg width="30" height="30" viewBox="0 0 30 30" fill="none" xmlns="http://www.w3.org/2000/svg">
<g id="save-icon">
<path id="Vector" d="M29.5293 6.6465L22.8787 0.439318C22.7299 0.299596 22.5528 0.188825 22.3577 0.113416C22.1627 0.0380073 21.9536 -0.000539989 21.7424 5.71389e-06H1.60714C1.18105 0.000468867 0.772559 0.158653 0.471269 0.439857C0.169979 0.721061 0.000496235 1.10232 0 1.50001V28.5C0.000496235 28.8977 0.169979 29.2789 0.471269 29.5601C0.772559 29.8414 1.18105 29.9995 1.60714 30H28.3928C28.8189 29.9995 29.2274 29.8414 29.5287 29.5601C29.83 29.2789 29.9995 28.8977 30 28.5V7.70707C30.0006 7.51002 29.9593 7.31482 29.8785 7.13278C29.7977 6.95073 29.679 6.78545 29.5293 6.6465ZM19.2857 2.00001V8H9.64285V2.00001H19.2857ZM27.8571 28H2.14286V2.00001H7.5V10H21.4286V2.00001H21.5205L27.8571 7.91419V28Z" fill="#FAFAFA"/>
<path id="Vector_2" d="M15 12.225C13.8133 12.225 12.6533 12.5769 11.6666 13.2362C10.6799 13.8954 9.91085 14.8325 9.45673 15.9289C9.0026 17.0252 8.88378 18.2316 9.11529 19.3955C9.3468 20.5594 9.91825 21.6285 10.7574 22.4676C11.5965 23.3067 12.6656 23.8782 13.8295 24.1097C14.9933 24.3412 16.1997 24.2224 17.2961 23.7683C18.3925 23.3141 19.3295 22.5451 19.9888 21.5584C20.6481 20.5717 21 19.4117 21 18.225C20.9983 16.6342 20.3656 15.1091 19.2407 13.9842C18.1159 12.8594 16.5908 12.2267 15 12.225ZM15 22.138C14.2261 22.138 13.4695 21.9085 12.826 21.4786C12.1825 21.0486 11.681 20.4374 11.3848 19.7224C11.0887 19.0074 11.0112 18.2206 11.1621 17.4616C11.3131 16.7025 11.6858 16.0053 12.2331 15.458C12.7803 14.9108 13.4775 14.5381 14.2366 14.3871C14.9957 14.2361 15.7824 14.3136 16.4975 14.6098C17.2125 14.906 17.8236 15.4075 18.2536 16.051C18.6835 16.6945 18.913 17.451 18.913 18.225C18.9119 19.2624 18.4992 20.257 17.7656 20.9906C17.0321 21.7242 16.0374 22.1368 15 22.138Z" fill="#FAFAFA"/>
</g>
</svg>
